<svg id="Layer_1" data-name="Layer 1" xmlns="http://www.w3.org/2000/svg" viewBox="0 0 400 400"><defs><style>.cls-1{fill:#fff;}</style></defs><path class="cls-1" d="M298.16,119.88l-52-52a12.71,12.71,0,0,0-9-3.71H234v67.91h67.92v-3.24a12.67,12.67,0,0,0-3.71-9"/><path class="cls-1" d="M229.71,149.06A12.77,12.77,0,0,1,217,136.33V64.16H110.86A12.7,12.7,0,0,0,98.13,76.9V323.1a12.71,12.71,0,0,0,12.73,12.74H289.13a12.72,12.72,0,0,0,12.74-12.74v-174Zm-112.86-15.3V87.7a10.77,10.77,0,0,1,10.77-10.76h71.89v67.6H127.62a10.77,10.77,0,0,1-10.77-10.78m39,155.16a4.37,4.37,0,0,1-4.37,4.37H134a4.37,4.37,0,0,1-4.37-4.37V271.44a4.37,4.37,0,0,1,4.37-4.37h17.49a4.37,4.37,0,0,1,4.37,4.37Zm0-43.7a4.37,4.37,0,0,1-4.37,4.37H134a4.37,4.37,0,0,1-4.37-4.37V227.74a4.36,4.36,0,0,1,4.37-4.37h17.49a4.36,4.36,0,0,1,4.37,4.37Zm0-43.7a4.37,4.37,0,0,1-4.37,4.36H134a4.37,4.37,0,0,1-4.37-4.36V184a4.36,4.36,0,0,1,4.37-4.37h17.49a4.36,4.36,0,0,1,4.37,4.37Zm113.63,83a4.38,4.38,0,0,1-4.38,4.37H177.7a4.38,4.38,0,0,1-4.37-4.37V275.8a4.37,4.37,0,0,1,4.37-4.36h87.4a4.37,4.37,0,0,1,4.38,4.36Zm0-43.71a4.39,4.39,0,0,1-4.38,4.38H177.7a4.38,4.38,0,0,1-4.37-4.38v-8.75a4.36,4.36,0,0,1,4.37-4.35h87.4a4.36,4.36,0,0,1,4.38,4.35Zm0-43.7a4.39,4.39,0,0,1-4.38,4.38H177.7a4.38,4.38,0,0,1-4.37-4.38v-8.75A4.37,4.37,0,0,1,177.7,184h87.4a4.37,4.37,0,0,1,4.38,4.36Z"/><polygon class="cls-1" points="149.39 131.31 139.97 131.31 139.97 101.33 130.72 104.04 130.72 96.91 148.52 90.74 149.39 90.74 149.39 131.31"/><path class="cls-1" d="M185.65,131.31H157.34v-6.14l13-13.7c3.2-3.66,4.82-6.56,4.82-8.72a6.12,6.12,0,0,0-1.15-4,4.09,4.09,0,0,0-3.31-1.36,4.13,4.13,0,0,0-3.48,1.83,7.44,7.44,0,0,0-1.35,4.55h-9.42a13.36,13.36,0,0,1,1.88-6.89A13,13,0,0,1,163.55,92,15.3,15.3,0,0,1,171,90.16c4.39,0,7.77,1,10.13,3s3.56,4.94,3.56,8.73a12.63,12.63,0,0,1-.9,4.67,21.23,21.23,0,0,1-2.77,4.76,72.59,72.59,0,0,1-6.06,6.66l-5.24,6h16Z"/></svg>