<svg id="Layer_1" data-name="Layer 1" xmlns="http://www.w3.org/2000/svg" viewBox="0 0 400 400"><defs><style>.cls-1{fill:#fff;}</style></defs><path class="cls-1" d="M298.16,119.88l-52-52a12.71,12.71,0,0,0-9-3.71H234v67.91h67.92v-3.24a12.67,12.67,0,0,0-3.71-9"/><path class="cls-1" d="M229.71,149.06A12.77,12.77,0,0,1,217,136.33V64.16H110.86A12.7,12.7,0,0,0,98.13,76.9V323.1a12.71,12.71,0,0,0,12.73,12.74H289.13a12.72,12.72,0,0,0,12.74-12.74v-174Zm-112.86-15.3V87.7a10.77,10.77,0,0,1,10.77-10.76h71.89v67.6H127.62a10.77,10.77,0,0,1-10.77-10.78m39,155.16a4.37,4.37,0,0,1-4.37,4.37H134a4.37,4.37,0,0,1-4.37-4.37V271.44a4.37,4.37,0,0,1,4.37-4.37h17.49a4.37,4.37,0,0,1,4.37,4.37Zm0-43.7a4.37,4.37,0,0,1-4.37,4.37H134a4.37,4.37,0,0,1-4.37-4.37V227.74a4.36,4.36,0,0,1,4.37-4.37h17.49a4.36,4.36,0,0,1,4.37,4.37Zm0-43.7a4.37,4.37,0,0,1-4.37,4.36H134a4.37,4.37,0,0,1-4.37-4.36V184a4.36,4.36,0,0,1,4.37-4.37h17.49a4.36,4.36,0,0,1,4.37,4.37Zm113.63,83a4.38,4.38,0,0,1-4.38,4.37H177.7a4.38,4.38,0,0,1-4.37-4.37V275.8a4.37,4.37,0,0,1,4.37-4.36h87.4a4.37,4.37,0,0,1,4.38,4.36Zm0-43.71a4.39,4.39,0,0,1-4.38,4.38H177.7a4.38,4.38,0,0,1-4.37-4.38v-8.75a4.36,4.36,0,0,1,4.37-4.35h87.4a4.36,4.36,0,0,1,4.38,4.35Zm0-43.7a4.39,4.39,0,0,1-4.38,4.38H177.7a4.38,4.38,0,0,1-4.37-4.38v-8.75A4.37,4.37,0,0,1,177.7,184h87.4a4.37,4.37,0,0,1,4.38,4.36Z"/><path class="cls-1" d="M175.9,98.29c0-6.7-5.4-13.53-16.73-13.53-9.33,0-16.37,4.56-16.73,13.88h10.89c.07-3.84,2.57-6.19,6-6.19a5.75,5.75,0,0,1,6.14,5.91c0,7.06-7.34,7.34-12.33,7.41v8.33h.71c6.84,0,11.55,1.13,11.55,7.33,0,4.06-2.64,6.76-6.42,6.76-4,0-6.26-2.42-6.42-6.61h-10.8v.28c0,4.49,1.49,8.47,4.41,10.82s7.47,3.49,12,3.49c10.18,0,18.15-5.91,18.15-14.59,0-5.85-3.56-10.12-10-12,6.4-1.92,9.53-5.77,9.53-11.25"/></svg>