<svg id="Layer_1" data-name="Layer 1" xmlns="http://www.w3.org/2000/svg" viewBox="0 0 400 400"><defs><style>.cls-1{fill:#fff;}</style></defs><path class="cls-1" d="M200,139.89a7.67,7.67,0,0,0-4.16,1.47L95.52,224v89.19a8.71,8.71,0,0,0,8.71,8.7l61-.15c1.91,0,12.71,0,25.23,0a4.88,4.88,0,0,1-.35-1.71V305.12a43.78,43.78,0,0,1-26.81-9.3,5,5,0,0,1-.56-7.59l10.8-10.53a4.79,4.79,0,0,1,6-.62,19.07,19.07,0,0,0,10.61,3.25h20.54a9.15,9.15,0,0,0,2.57-17.92l-31.77-9.29c-13.76-4-24.66-15.66-26-29.94a34,34,0,0,1,33.78-37.06h.78V171.23a5,5,0,0,1,5-5H205a5,5,0,0,1,4.95,5v14.89a43.81,43.81,0,0,1,26.81,9.29,5,5,0,0,1,.56,7.6L226.5,213.54a4.84,4.84,0,0,1-6.05.62,19,19,0,0,0-10.59-3.26H189.3a9.15,9.15,0,0,0-2.56,17.92l33.46,9.8a34,34,0,0,1,22.48,43.91c-4.78,13.67-18.32,22.25-32.77,22.53V320a4.47,4.47,0,0,1-.35,1.71h25.25l61,.17a8.71,8.71,0,0,0,8.71-8.7V223.93L204.17,141.36a7.73,7.73,0,0,0-4.16-1.47"/><path class="cls-1" d="M354.32,197.53,308.83,160V84.66a6.54,6.54,0,0,0-6.52-6.54H271.83a6.54,6.54,0,0,0-6.53,6.54v39.51L216.58,84.08a30.45,30.45,0,0,0-16.6-6,30.42,30.42,0,0,0-16.6,6L45.64,197.53a7.4,7.4,0,0,0-2.37,5,7.62,7.62,0,0,0,1.49,4.16l13.88,16.87a7.4,7.4,0,0,0,5,2.38,7.65,7.65,0,0,0,4.16-1.49l128-105.42a6.61,6.61,0,0,1,8.34,0l128,105.42a7.63,7.63,0,0,0,4.16,1.5,7.38,7.38,0,0,0,5-2.37l13.88-16.87a7.68,7.68,0,0,0,1.48-4.14,7.35,7.35,0,0,0-2.41-5.07"/></svg>