<svg id="Layer_1" data-name="Layer 1" xmlns="http://www.w3.org/2000/svg" viewBox="0 0 400 400"><defs><style>.cls-1{fill:#fff;}</style></defs><path class="cls-1" d="M132.31,154.85q0-13.64,8.89-22T165,124.46q15.15,0,23.92,8.33t8.79,22.56v7.27q0,13.63-8.79,21.91t-23.73,8.27q-14.82,0-23.87-8.22t-9-22.57Zm21.91,7.75a12.17,12.17,0,0,0,2.93,8.48,10.29,10.29,0,0,0,8.06,3.25q10.62,0,10.61-13.44v-6a12.91,12.91,0,0,0-2.82-8.58,9.86,9.86,0,0,0-8-3.35,10,10,0,0,0-7.87,3.25c-2,2.18-2.93,5.13-2.93,8.88Zm17.46,100-15.85-8,71.78-114.87,15.85,8Zm30.5-25q0-13.74,8.93-22t23.77-8.27q15,0,23.91,8.17t8.9,22.82v7.06q0,13.72-8.78,22t-23.83,8.28q-14.85,0-23.87-8.23t-9-22.56Zm21.8,7.75a11.91,11.91,0,0,0,3.23,8.27,10.22,10.22,0,0,0,7.87,3.55q9.79,0,10.6-9.21l.1-10.34a12.36,12.36,0,0,0-2.93-8.58,11.37,11.37,0,0,0-15.74-.19,12.15,12.15,0,0,0-3.13,8.27Z"/><path class="cls-1" d="M132.41,281A105.49,105.49,0,0,1,240.06,102.41l10.54-17.5A125.72,125.72,0,0,0,121.86,298.48Z"/><path class="cls-1" d="M267.59,119A105.49,105.49,0,0,1,159.94,297.59l-10.55,17.5A125.73,125.73,0,0,0,278.14,101.51Z"/></svg>