<svg id="Layer_1" data-name="Layer 1" xmlns="http://www.w3.org/2000/svg" viewBox="0 0 400 400"><defs><style>.cls-1{fill:#fff;}</style></defs><path class="cls-1" d="M199.91,328.86c-79-.06-142.66-57.79-142.56-129.22C57.44,128.56,121.48,71,200.4,71.14c78.72.11,142.37,57.93,142.25,129.23-.12,71-64.09,128.56-142.74,128.49m101.38-53.37c18.2-20.1,28.36-43.52,29.88-70.27H274.09a207.64,207.64,0,0,1-9.24,58l36.44,12.22m-202.57,0c12.36-4.13,24.27-8.13,36.41-12.21A201.2,201.2,0,0,1,126,205.19H68.81c1.61,26.84,11.71,50.25,29.91,70.3M68.83,194.8h57c.59-20.05,3.41-39.48,9.33-58.07L98.7,124.52C80.52,144.66,70.35,168,68.83,194.8m262.36.07c-1.58-26.88-11.73-50.28-29.9-70.35-12.36,4.13-24.27,8.13-36.46,12.22,6,18.69,8.7,38.23,9.37,58.13ZM146.35,139.16a1.84,1.84,0,0,0-.21.4c-5.67,17.27-7.86,35-9.23,52.91-.18,2.44,1.14,2.71,3.36,2.7,14.81-.08,29.62-.08,44.44-.1h9.36V143.85c-16-1.57-31.64-3.12-47.72-4.69m107.4,121.69a194.07,194.07,0,0,0,9-55.62h-57v50.91l48,4.71m9-66c-.5-19.32-3.17-38-9-55.65l-47.85,4.69v51Zm-116.47,66,47.91-4.71V205.21H137.3a192.67,192.67,0,0,0,9,55.64m4,10.49c3.73,11.48,13.8,27.13,22.61,35.32a44.81,44.81,0,0,0,16.57,10.21c1.47.49,3.06.74,4.72,1.13V267.09a268.51,268.51,0,0,0-43.9,4.25m99.6.3c-7.65-2.45-39.56-5.32-44-4.07v50.49c1.45-.35,2.66-.57,3.81-.91A42.21,42.21,0,0,0,226,307.66c11.25-10.15,18.11-22.69,23.83-36M194.15,81.89c-1.9.51-3.5.85-5,1.36A45.58,45.58,0,0,0,171,95.2c-9.36,9.66-15.71,20.87-20.55,32.83,0,.12.12.32.26.72a270.17,270.17,0,0,0,43.48,4.17ZM250,128.61c-5.51-13-12.07-24.9-22.39-34.85a44.54,44.54,0,0,0-17-10.63c-1.48-.48-3.07-.72-4.74-1.11v50.9A267.69,267.69,0,0,0,250,128.61m-14.53,185.1c13.35-.69,49.51-19.79,57.2-30.42-10.47-3.38-20.75-6.67-31.27-10.06-6.27,15.14-13.83,28.91-25.93,40.48m25.74-187.38c10.9-2.6,21.33-5.64,31.55-10.3a131.78,131.78,0,0,0-57-29.83c11.77,11.67,19.33,25.44,25.41,40.13m-97,187.44c-11.76-11.68-19.27-25.48-25.55-40.55-10.56,3.41-20.85,6.71-31.89,10.28a132.35,132.35,0,0,0,57.44,30.27M107.66,115.69c0,.37,0,.74-.07,1.1,10.3,3.32,20.57,6.62,30.57,9.81,4-7.55,7.17-14.7,11.37-21.31S159,92.4,163.76,86a134.55,134.55,0,0,0-56.1,29.66"/></svg>