<svg id="Layer_1" data-name="Layer 1" xmlns="http://www.w3.org/2000/svg" viewBox="0 0 400 400"><defs><style>.cls-1{fill:#fff;}</style></defs><path class="cls-1" d="M333.82,179.19v82.29c0,14.89-18,22.36-28.56,11.82l-22.58-22.58-66.91,66.91a22.3,22.3,0,0,1-31.54,0l-51.14-51.14L101,298.6a11.13,11.13,0,0,1-15.76,0L69.45,282.84a11.15,11.15,0,0,1,0-15.78l47.87-47.87a22.28,22.28,0,0,1,31.54,0L200,270.32l51.14-51.14L228.56,196.6c-10.55-10.54-3.08-28.55,11.83-28.55h82.28a11.13,11.13,0,0,1,11.15,11.14"/><path class="cls-1" d="M97.91,98.57q0-10.2,6.65-16.47t17.82-6.26q11.33,0,17.91,6.22T146.85,99v5.44q0,10.2-6.56,16.4T122.53,127q-11.1,0-17.86-6.15t-6.76-16.89Zm16.39,5.8a9.06,9.06,0,0,0,2.2,6.34,7.65,7.65,0,0,0,6,2.44q7.93,0,7.94-10.06V98.58a9.64,9.64,0,0,0-2.11-6.4,8.35,8.35,0,0,0-11.86-.08,9.54,9.54,0,0,0-2.2,6.64Zm13.07,74.81-11.87-6,53.73-86,11.86,6Zm22.82-18.73q0-10.29,6.69-16.47c4.44-4.13,10.38-6.19,17.78-6.19s13.48,2,17.9,6.11,6.65,9.77,6.65,17.07v5.29q0,10.28-6.57,16.47t-17.83,6.2q-11.1,0-17.86-6.16t-6.76-16.89Zm16.32,5.8a8.92,8.92,0,0,0,2.42,6.19,7.63,7.63,0,0,0,5.88,2.66c4.89,0,7.53-2.31,7.94-6.9l.07-7.74a9.22,9.22,0,0,0-2.2-6.42,7.6,7.6,0,0,0-6-2.44,7.7,7.7,0,0,0-5.81,2.29,9.12,9.12,0,0,0-2.34,6.2Z"/></svg>