<svg id="Layer_1" data-name="Layer 1" xmlns="http://www.w3.org/2000/svg" viewBox="0 0 400 400"><defs><style>.cls-1{fill:#fff;}</style></defs><path class="cls-1" d="M55.89,288.07a24,24,0,0,0,24,24h240.2a24,24,0,0,0,24-24V136H55.89ZM232,172a4,4,0,0,1,4-4H308.1a4,4,0,0,1,4,4v8a4,4,0,0,1-4,4H236a4,4,0,0,1-4-4Zm0,32a4,4,0,0,1,4-4H308.1a4,4,0,0,1,4,4v8a4,4,0,0,1-4,4H236a4,4,0,0,1-4-4Zm0,32a4,4,0,0,1,4-4H308.1a4,4,0,0,1,4,4v8a4,4,0,0,1-4,4H236a4,4,0,0,1-4-4Zm-74.87-52.15h41v7l-21.27,49.89H163L184.29,194H157.16Zm-57.17,0,6.54,35.69,7.82-35.69H126l7.94,35.69,6.53-35.69h13.61L142,240.81H127.76l-7.63-32.45-7.47,32.45H98.46L86.35,183.88Z"/><path class="cls-1" d="M320.1,87.91H79.9a24,24,0,0,0-24,24v8H344.11v-8a24,24,0,0,0-24-24"/></svg>