<svg id="Layer_1" data-name="Layer 1" xmlns="http://www.w3.org/2000/svg" viewBox="0 0 400 400"><defs><style>.cls-1{fill:#fff;}</style></defs><path class="cls-1" d="M69.58,321.11v18.63a9.34,9.34,0,0,0,9.3,9.32H321.1a9.35,9.35,0,0,0,9.32-9.32V321.11a9.35,9.35,0,0,0-9.32-9.32H78.88a9.34,9.34,0,0,0-9.3,9.32M197.26,209.88V191.06c-6,.35-8.9,4.21-8.9,9.12,0,5.26,2.46,7.95,8.9,9.7M203,227.65v19.64c5.74-.58,9.48-4.56,9.48-9.94,0-4.91-2.69-7.83-9.48-9.7m.58-36.82v20.8c14.63,3.39,25.6,8.42,25.6,23.85,0,13.92-11.68,23.84-26.41,24v11.69h-6.18V259.43h-.83a26.52,26.52,0,0,1-18.46-6.88c-4.91-4.55-6.19-10.4-6.43-18.46h15.88v.7c0,7.95,4,12.05,10,12.28V226.35c-13.46-3.73-24.2-8.52-24.2-23.71,0-13.68,10.74-23.14,24.9-23.83V169h6.41v9.58c15.78.82,24.55,8.64,24.55,23H212.68c-.46-6.66-2-10-9.13-10.75m182.77-37.41a27.95,27.95,0,0,0-55.9,0A27.4,27.4,0,0,0,333,165l-42.15,25.26a18.61,18.61,0,0,1-25.74-6.74l-47.45-83a28,28,0,1,0-35.28,0l-47.46,83a18.61,18.61,0,0,1-25.73,6.74L67.07,165a27.94,27.94,0,1,0-25.44,16.42,29,29,0,0,0,4.48-.46L88.2,293.16H311.79l42.09-112.25a29,29,0,0,0,4.49.46,28,28,0,0,0,27.95-28"/></svg>